<svg width="214" height="40" viewBox="0 0 214 40" fill="none" xmlns="http://www.w3.org/2000/svg">
<g clip-path="url(#clip0_253_2284)">
<path d="M206.294 39.7658C206.294 39.7658 182.176 28.2525 147.437 39.7658H206.294Z" fill="#635BFE"/>
<path d="M187.174 33.1553C196.757 33.9986 204.099 36.0741 208.587 37.6763C208.692 37.6248 208.8 37.5803 208.905 37.5264C210.231 36.8447 211.405 36.0295 212.428 35.0832L208.964 30.2554C207.601 31.4289 206.331 32.2441 205.157 32.6986C203.984 33.153 202.696 33.3802 201.295 33.3802C199.287 33.3802 197.526 33.0007 196.012 32.2441C194.534 31.4477 193.38 30.3327 192.548 28.892C192.014 27.9246 191.663 26.8447 191.487 25.6548H213.565L213.621 23.2116C213.658 21.0916 213.337 19.1403 212.656 17.3601C212.012 15.5423 211.065 13.9893 209.817 12.7009C208.566 11.3751 207.09 10.335 205.385 9.57605C203.682 8.81943 201.843 8.43995 199.875 8.43995C197.64 8.43995 195.577 8.83817 193.684 9.63227C191.829 10.3889 190.22 11.4875 188.856 12.9281C187.53 14.3289 186.49 15.9968 185.731 17.9269C184.975 19.8595 184.595 21.9982 184.595 24.3453C184.595 27.2992 185.258 29.9321 186.584 32.2418C186.771 32.5557 186.971 32.8578 187.179 33.153L187.174 33.1553ZM195.157 15.7157C196.446 14.9965 198.018 14.6358 199.873 14.6358C201.084 14.6358 202.183 14.9005 203.169 15.4322C204.19 15.9241 205.024 16.6245 205.668 17.5334C206.312 18.4048 206.692 19.4261 206.804 20.602V20.8855H191.639C191.798 20.1336 192.023 19.4496 192.318 18.8405C192.963 17.4772 193.909 16.4348 195.16 15.7157H195.157Z" fill="#1D1D2A"/>
<path d="M147.437 24.8255C147.437 21.1525 147.343 17.9902 147.153 15.3385C147.097 14.3312 147.015 13.3357 146.922 12.3495L157.437 28.9717H161.187L171.991 12.2956C171.876 13.4013 171.775 14.5093 171.698 15.6219C171.546 18.3486 171.471 21.4172 171.471 24.8255V33.0124C174.008 32.8414 176.451 32.7688 178.798 32.7782V8.58307e-06H172.152L159.538 20.2413L147.095 8.58307e-06H140.107V39.7658C142.595 38.8639 145.038 38.0698 147.435 37.3647V24.8255H147.437Z" fill="#1D1D2A"/>
<path d="M128.934 12.7032C127.685 11.3773 126.207 10.3373 124.502 9.57833C122.796 8.82171 120.96 8.44223 118.992 8.44223C116.757 8.44223 114.694 8.84045 112.801 9.63455C110.946 10.3912 109.336 11.4898 107.973 12.9304C106.647 14.3312 105.607 15.999 104.848 17.9292C104.092 19.8618 103.712 22.0004 103.712 24.3476C103.712 27.3014 104.375 29.9344 105.701 32.2441C107.064 34.5162 108.938 36.3153 111.325 37.6411C113.75 38.9669 116.532 39.6299 119.676 39.6299C121.077 39.6299 122.496 39.4401 123.937 39.0606C125.375 38.6812 126.739 38.1705 128.027 37.5263C129.353 36.8447 130.526 36.0295 131.55 35.0831L128.086 30.2553C126.722 31.4289 125.453 32.2441 124.279 32.6985C123.105 33.1529 121.817 33.3802 120.416 33.3802C118.409 33.3802 116.647 33.0007 115.134 32.2441C113.656 31.4476 112.501 30.3326 111.67 28.892C111.135 27.9245 110.784 26.8447 110.608 25.6547H132.688L132.745 23.2115C132.782 21.0916 132.461 19.1403 131.78 17.36C131.135 15.5423 130.189 13.9892 128.938 12.7008L128.934 12.7032ZM114.277 15.7156C115.565 14.9965 117.137 14.6357 118.992 14.6357C120.203 14.6357 121.302 14.9004 122.288 15.4322C123.312 15.9241 124.143 16.6245 124.787 17.5334C125.432 18.4047 125.809 19.4261 125.923 20.602V20.8854H110.758C110.918 20.1335 111.142 19.4495 111.438 18.8404C112.082 17.4771 113.028 16.4347 114.277 15.7156Z" fill="#1D1D2A"/>
<path d="M26.6123 20.2928C25.7737 19.6697 24.8414 19.1731 23.8154 18.8006C25.0873 18.2173 26.1344 17.4092 26.9449 16.3644C28.088 14.8887 28.6619 13.0803 28.6619 10.9393C28.6619 8.79826 28.2005 7.11871 27.2775 5.68043C26.3921 4.20468 25.0639 3.09669 23.293 2.35881C21.5596 1.62093 19.4185 1.25082 16.8723 1.25082H0.374268V39.9999H17.4228C19.4513 39.9999 21.2785 39.761 22.9018 39.2808C24.5251 38.7631 25.9283 38.0252 27.1089 37.0672C28.2895 36.1068 29.1749 34.9074 29.7652 33.4691C30.393 32.0309 30.7069 30.3701 30.7069 28.4867C30.7069 26.7158 30.3368 25.1463 29.5989 23.7807C28.8985 22.3776 27.9006 21.2157 26.6099 20.2928H26.6123ZM7.40402 7.72775H15.6519C17.5703 7.72775 19.0297 8.15174 20.0252 9.00205C21.0208 9.81489 21.5197 10.958 21.5197 12.4338C21.5197 13.3567 21.2972 14.1672 20.8545 14.8699C20.4117 15.5703 19.784 16.1255 18.9735 16.5307C18.1981 16.936 17.2752 17.1398 16.2047 17.1398H7.40402V7.73009V7.72775ZM22.6816 31.1431C22.2014 31.9184 21.4823 32.5087 20.5218 32.914C19.5989 33.3192 18.4558 33.523 17.0901 33.523H7.40402V23.338H16.8137C18.1794 23.338 19.36 23.5418 20.3555 23.947C21.3511 24.3171 22.1077 24.8699 22.6254 25.6078C23.1782 26.3457 23.4546 27.2311 23.4546 28.2642C23.4546 29.3722 23.1969 30.3302 22.6793 31.1431H22.6816Z" fill="#1D1D2A"/>
<path d="M95.9306 24.9731C95.2114 24.1767 94.2276 23.4763 92.9767 22.8719C91.7258 22.2652 90.1751 21.7171 88.3175 21.2252C86.9917 20.923 85.9118 20.5997 85.0802 20.2601C84.2463 19.9181 83.6232 19.6159 83.2063 19.3512C82.8268 19.0865 82.5246 18.7632 82.2974 18.3861C82.1077 17.9691 81.9952 17.5334 81.9554 17.079C81.9554 16.5496 82.0491 16.0952 82.2388 15.7157C82.4661 15.2987 82.7682 14.9591 83.1477 14.692C83.5272 14.4273 84.0004 14.2376 84.5672 14.1228C85.1341 13.9706 85.7783 13.8956 86.4974 13.8956C87.2541 13.8956 88.0692 14.0666 88.9406 14.4063C89.812 14.7084 90.6647 15.1254 91.4963 15.6571C92.3677 16.1865 93.1618 16.7932 93.8832 17.4749L97.746 13.2139C96.8746 12.2301 95.8134 11.3962 94.5649 10.7145C93.3538 9.99538 92.028 9.4449 90.5874 9.06776C89.1866 8.68828 87.7272 8.49854 86.214 8.49854C84.7008 8.49854 83.3164 8.70702 81.953 9.12398C80.5897 9.54094 79.3974 10.1476 78.3738 10.9417C77.3501 11.7382 76.5373 12.6845 75.9306 13.7832C75.3613 14.8443 75.0779 16.0366 75.0779 17.3624C75.0779 18.4236 75.2302 19.4074 75.5323 20.3163C75.8743 21.2252 76.3663 22.0404 77.0081 22.7595C77.7647 23.6309 78.8259 24.425 80.1892 25.1465C81.5525 25.8281 83.2578 26.4348 85.3028 26.9642C86.5911 27.2664 87.6312 27.5709 88.4276 27.8731C89.2615 28.1753 89.8659 28.4611 90.2454 28.7258C90.927 29.2552 91.2667 29.9743 91.2667 30.8832C91.2667 31.3751 91.1543 31.8295 90.9247 32.2465C90.735 32.626 90.4515 32.9656 90.072 33.2678C89.6926 33.57 89.2381 33.7972 88.7087 33.9495C88.2168 34.1017 87.6476 34.1767 87.0058 34.1767C85.4527 34.1767 83.9769 33.8932 82.5738 33.324C81.173 32.7571 79.9034 31.8272 78.7673 30.5412L74.2229 34.4601C75.5487 36.1256 77.2517 37.414 79.3365 38.3229C81.4564 39.1943 83.8434 39.63 86.4951 39.63C88.6549 39.63 90.5851 39.2317 92.2904 38.4376C94.0332 37.6412 95.3965 36.5449 96.3803 35.1418C97.404 33.741 97.9146 32.1505 97.9146 30.3702C97.9146 29.2716 97.7624 28.269 97.4602 27.3601C97.158 26.4512 96.645 25.6571 95.9259 24.9731H95.9306Z" fill="#1D1D2A"/>
<path d="M59.7887 13.3614C59.2195 12.4854 58.5191 11.6983 57.6875 11.0002C56.7412 10.2038 55.6426 9.59944 54.3917 9.18248C53.1432 8.72804 51.7587 8.50082 50.2455 8.50082C47.6313 8.50082 45.2842 9.16374 43.2017 10.4896C41.1193 11.8154 39.4725 13.6519 38.2591 15.9991C37.048 18.3462 36.4413 21.0166 36.4413 24.008C36.4413 26.9993 37.048 29.6697 38.2591 32.0169C39.4702 34.364 41.0794 36.2216 43.0869 37.5849C45.0944 38.9482 47.3291 39.6299 49.7911 39.6299C51.2294 39.6299 52.5739 39.4027 53.8248 38.9482C55.1132 38.4938 56.268 37.9058 57.2893 37.1867C58.2638 36.491 59.0766 35.7133 59.7325 34.8559V39.0607H66.8325V9.12392H59.7887V13.3591V13.3614ZM56.0384 32.2464C54.7899 33.0429 53.3493 33.4387 51.7213 33.4387C50.0933 33.4387 48.6526 33.0405 47.4041 32.2464C46.193 31.45 45.2467 30.3537 44.565 28.9506C43.8834 27.5123 43.5437 25.8632 43.5437 24.008C43.5437 22.1527 43.8834 20.5809 44.565 19.1801C45.2467 17.7793 46.193 16.6807 47.4041 15.8843C48.655 15.0878 50.0933 14.692 51.7213 14.692C53.3493 14.692 54.7899 15.0902 56.0384 15.8843C57.287 16.6807 58.2544 17.777 58.9361 19.1801C59.6552 20.5809 60.016 22.1902 60.016 24.008C60.016 25.8257 59.6552 27.51 58.9361 28.9506C58.2544 30.3514 57.2893 31.45 56.0384 32.2464Z" fill="#1D1D2A"/>
</g>
<defs>
<clipPath id="clip0_253_2284">
<rect width="213.249" height="40" fill="white" transform="translate(0.374268)"/>
</clipPath>
</defs>
</svg>
